<?xml version="1.0" encoding="utf-8"?>
<svg version="1.1" xmlns="http://www.w3.org/2000/svg" xmlns:xlink="http://www.w3.org/1999/xlink" x="0px" y="0px"
	 viewBox="0 0 1000 1000" style="enable-background:new 0 0 1000 1000;" xml:space="preserve">
<style type="text/css">
	.st0{display:none;fill:none;stroke:#F15A24;stroke-miterlimit:10;}
	.st1{opacity:0.6;fill:#F15A24;stroke:#BB3C24;stroke-width:12;stroke-miterlimit:10;}
	.st2{fill:none;stroke:#F15A24;stroke-width:16;stroke-miterlimit:10;}
	.st3{fill:#F15A24;}
	.st4{opacity:0.76;fill:#F15A24;}
	.st5{fill:#009F3A;}
	.st6{fill:none;stroke:#42BD62;stroke-width:2;stroke-miterlimit:10;}
	.st7{opacity:0.8;fill:#DB3C24;stroke:#BB3C24;stroke-width:6;stroke-miterlimit:10;}
</style>
<g id="pattern">
	<path class="st0" d="M250.55,871.71c0,0,25.41-149.12,102.73-149.12c0,0,41.98,0,55.23,70.7c0,0,83.95-39.77,181.16,0
		c0,0,11.6-70.7,58.54-70.7c0,0,70.7-4.42,99.8,149.12H250.55z"/>
	<path class="st1" d="M248.52,876.55c0,0,49.78-132,103.04-134.01c0,0,42.39,1.16,55.23,70.7c0,0,85.48-39.32,181.16,0
		c0,0,12.72-70.7,58.54-70.7c0,0,45.58-4.21,101.58,134.01l0,0c91.57-73.3,150.22-186.02,150.22-312.45c0-220.91-179.09-400-400-400
		s-400,179.09-400,400C98.3,690.52,156.95,803.24,248.52,876.55L248.52,876.55z"/>
	<path class="st2" d="M250.24,876.71c0,0,49.78-132,103.04-134.01c0,0,42.39,1.16,55.23,70.7c0,0,85.48-39.32,181.16,0
		c0,0,12.72-70.7,58.54-70.7c0,0,45.58-4.21,101.58,134.01l0,0c91.57-73.3,150.22-186.02,150.22-312.45c0-220.91-179.09-400-400-400
		s-400,179.09-400,400C100.02,690.69,158.67,803.41,250.24,876.71L250.24,876.71z"/>
	<g id="eyes">
		<circle class="st3" cx="419.13" cy="887.82" r="16.89"/>
		<circle class="st3" cx="580.91" cy="887.82" r="16.89"/>
	</g>
	<g id="ear_shadow">
		<path class="st3" d="M638.6,777.83c-6.19,7.21-13.88,20.59-16.64,44.08c0,0,35.2,4.91,63.03-2.46c0,0-11.46-29.47-26.57-42.33
			C652.45,772.03,643.71,771.88,638.6,777.83z"/>
		<path class="st3" d="M358.73,777.73c6.19,7.21,13.88,20.59,16.64,44.08c0,0-35.2,4.91-63.03-2.46c0,0,11.46-29.47,26.57-42.33
			C344.88,771.94,353.62,771.78,358.73,777.73z"/>
	</g>
</g>
<g id="dots">
	<circle class="st4" cx="786.8" cy="539.52" r="5.52"/>
	<circle class="st4" cx="803.76" cy="605.52" r="7.17"/>
	<circle class="st4" cx="750.31" cy="631.73" r="6.07"/>
	<circle class="st4" cx="784.77" cy="658.62" r="9.38"/>
	<circle class="st4" cx="758.1" cy="582.34" r="7.72"/>
	<circle class="st4" cx="710.64" cy="658.62" r="3.86"/>
	<circle class="st4" cx="730.84" cy="698.3" r="4.97"/>
</g>
<g id="leaf">
	<g>
		<path class="st5" d="M478.48,321.55C386.5,39.73,157.02,80.33,69.55,50.66c0,0,65.77,180.53,245.36,230.56
			S478.48,321.55,478.48,321.55z"/>
		<path class="st6" d="M74.44,52.07c69.23,95.74,290.13,116.4,395.61,270.26"/>
	</g>
	<path class="st7" d="M499.18,326.38c0-1.7,1.85-1.13,0-2.3c-1.03-0.65-2.89-4.21-4.3-4.6c-1.52-0.41-1.89-3.45-3.68-3.45
		c-1.86,0-6.12-1.84-9.21-1.15c-4.01,0.89-8.01,3.72-7.98,10.34c0.01,1.64,1.94,3.38,3.62,4.59c2.48,1.8,7.06,2.15,9.89,2.87
		c1.79,0.46,4.48,0.62,7.98-1.15C497.89,330.34,499.18,328.34,499.18,326.38z"/>
</g>
</svg>
